<mxfile host="app.diagrams.net" agent="Mozilla/5.0 (Windows NT 10.0; Win64; x64) AppleWebKit/537.36 (KHTML, like Gecko) Chrome/133.0.0.0 Safari/537.36" version="26.0.15">
  <diagram id="C5RBs43oDa-KdzZeNtuy" name="Page-1">
    <mxGraphModel dx="1687" dy="918" grid="1" gridSize="10" guides="1" tooltips="1" connect="1" arrows="1" fold="1" page="1" pageScale="1" pageWidth="827" pageHeight="1169" math="0" shadow="0">
      <root>
        <mxCell id="WIyWlLk6GJQsqaUBKTNV-0" />
        <mxCell id="WIyWlLk6GJQsqaUBKTNV-1" parent="WIyWlLk6GJQsqaUBKTNV-0" />
        <mxCell id="S4ALjUtNJ2dEBJcH048C-326" style="edgeStyle=orthogonalEdgeStyle;rounded=0;orthogonalLoop=1;jettySize=auto;html=1;exitX=0.5;exitY=1;exitDx=0;exitDy=0;entryX=0.5;entryY=0;entryDx=0;entryDy=0;" edge="1" parent="WIyWlLk6GJQsqaUBKTNV-1" source="S4ALjUtNJ2dEBJcH048C-128" target="S4ALjUtNJ2dEBJcH048C-319">
          <mxGeometry relative="1" as="geometry" />
        </mxCell>
        <mxCell id="S4ALjUtNJ2dEBJcH048C-128" value="&lt;font style=&quot;font-size: 15px;&quot;&gt;étape 1 : modification globale du schema 1223&lt;/font&gt;" style="rounded=1;whiteSpace=wrap;html=1;fillColor=#dae8fc;strokeColor=#6c8ebf;" vertex="1" parent="WIyWlLk6GJQsqaUBKTNV-1">
          <mxGeometry x="120" y="90" width="190" height="40" as="geometry" />
        </mxCell>
        <mxCell id="S4ALjUtNJ2dEBJcH048C-259" value="&lt;span style=&quot;background-color: rgb(255, 255, 255);&quot;&gt;les modifications se répercutent sur les schemas des centrales concernés&lt;/span&gt;" style="rounded=0;whiteSpace=wrap;html=1;" vertex="1" parent="WIyWlLk6GJQsqaUBKTNV-1">
          <mxGeometry x="440" y="220" width="413.5" height="40" as="geometry" />
        </mxCell>
        <mxCell id="S4ALjUtNJ2dEBJcH048C-261" value="&lt;font style=&quot;font-size: 15px;&quot;&gt;étape 2 : modification du schema 1223 sur la scapalsace&lt;/font&gt;" style="rounded=1;whiteSpace=wrap;html=1;fillColor=#fff2cc;strokeColor=#d6b656;" vertex="1" parent="WIyWlLk6GJQsqaUBKTNV-1">
          <mxGeometry x="60" y="510" width="290" height="50" as="geometry" />
        </mxCell>
        <mxCell id="S4ALjUtNJ2dEBJcH048C-317" value="" style="sketch=0;outlineConnect=0;fontColor=#232F3E;gradientColor=none;fillColor=#232F3D;strokeColor=none;dashed=0;verticalLabelPosition=bottom;verticalAlign=top;align=center;html=1;fontSize=12;fontStyle=0;aspect=fixed;pointerEvents=1;shape=mxgraph.aws4.user;" vertex="1" parent="WIyWlLk6GJQsqaUBKTNV-1">
          <mxGeometry x="200" y="30" width="30" height="30" as="geometry" />
        </mxCell>
        <mxCell id="S4ALjUtNJ2dEBJcH048C-318" value="" style="sketch=0;outlineConnect=0;fontColor=#232F3E;gradientColor=none;fillColor=#232F3D;strokeColor=none;dashed=0;verticalLabelPosition=bottom;verticalAlign=top;align=center;html=1;fontSize=12;fontStyle=0;aspect=fixed;pointerEvents=1;shape=mxgraph.aws4.user;" vertex="1" parent="WIyWlLk6GJQsqaUBKTNV-1">
          <mxGeometry x="190" y="440" width="30" height="30" as="geometry" />
        </mxCell>
        <mxCell id="S4ALjUtNJ2dEBJcH048C-423" style="edgeStyle=orthogonalEdgeStyle;rounded=0;orthogonalLoop=1;jettySize=auto;html=1;exitX=1;exitY=0.5;exitDx=0;exitDy=0;entryX=0;entryY=0.75;entryDx=0;entryDy=0;" edge="1" parent="WIyWlLk6GJQsqaUBKTNV-1" source="S4ALjUtNJ2dEBJcH048C-319" target="S4ALjUtNJ2dEBJcH048C-209">
          <mxGeometry relative="1" as="geometry" />
        </mxCell>
        <mxCell id="S4ALjUtNJ2dEBJcH048C-319" value="décalage de la livraison du mercredi au jeudi" style="rounded=0;whiteSpace=wrap;html=1;" vertex="1" parent="WIyWlLk6GJQsqaUBKTNV-1">
          <mxGeometry x="125" y="160" width="185" height="30" as="geometry" />
        </mxCell>
        <mxCell id="S4ALjUtNJ2dEBJcH048C-325" value="" style="endArrow=classic;html=1;rounded=0;" edge="1" parent="WIyWlLk6GJQsqaUBKTNV-1" source="S4ALjUtNJ2dEBJcH048C-317" target="S4ALjUtNJ2dEBJcH048C-128">
          <mxGeometry width="50" height="50" relative="1" as="geometry">
            <mxPoint x="400" y="430" as="sourcePoint" />
            <mxPoint x="450" y="380" as="targetPoint" />
          </mxGeometry>
        </mxCell>
        <mxCell id="S4ALjUtNJ2dEBJcH048C-327" value="" style="shape=cylinder3;whiteSpace=wrap;html=1;boundedLbl=1;backgroundOutline=1;size=15;" vertex="1" parent="WIyWlLk6GJQsqaUBKTNV-1">
          <mxGeometry x="588" y="5" width="40" height="60" as="geometry" />
        </mxCell>
        <mxCell id="S4ALjUtNJ2dEBJcH048C-328" value="" style="group" vertex="1" connectable="0" parent="WIyWlLk6GJQsqaUBKTNV-1">
          <mxGeometry x="685" y="302" width="260" height="115" as="geometry" />
        </mxCell>
        <mxCell id="S4ALjUtNJ2dEBJcH048C-242" value="" style="rounded=1;whiteSpace=wrap;html=1;fillColor=#fff2cc;strokeColor=#d6b656;" vertex="1" parent="S4ALjUtNJ2dEBJcH048C-328">
          <mxGeometry width="260" height="115" as="geometry" />
        </mxCell>
        <mxCell id="S4ALjUtNJ2dEBJcH048C-243" value="schema 1223&amp;nbsp;&lt;span style=&quot;background-color: transparent; color: light-dark(rgb(0, 0, 0), rgb(255, 255, 255));&quot;&gt;scapest&lt;/span&gt;" style="rounded=1;whiteSpace=wrap;html=1;fontSize=12;glass=0;strokeWidth=1;shadow=0;" vertex="1" parent="S4ALjUtNJ2dEBJcH048C-328">
          <mxGeometry x="17" y="10" width="230" height="15" as="geometry" />
        </mxCell>
        <mxCell id="S4ALjUtNJ2dEBJcH048C-244" value="" style="shape=table;startSize=0;container=1;collapsible=0;childLayout=tableLayout;fontSize=11;" vertex="1" parent="S4ALjUtNJ2dEBJcH048C-328">
          <mxGeometry x="20" y="35" width="230" height="60" as="geometry" />
        </mxCell>
        <mxCell id="S4ALjUtNJ2dEBJcH048C-245" value="" style="shape=tableRow;horizontal=0;startSize=0;swimlaneHead=0;swimlaneBody=0;strokeColor=inherit;top=0;left=0;bottom=0;right=0;collapsible=0;dropTarget=0;fillColor=none;points=[[0,0.5],[1,0.5]];portConstraint=eastwest;fontSize=11;" vertex="1" parent="S4ALjUtNJ2dEBJcH048C-244">
          <mxGeometry width="230" height="30" as="geometry" />
        </mxCell>
        <mxCell id="S4ALjUtNJ2dEBJcH048C-246" value="lun&lt;div&gt;14/04&lt;/div&gt;" style="shape=partialRectangle;html=1;whiteSpace=wrap;connectable=0;strokeColor=inherit;overflow=hidden;fillColor=none;top=0;left=0;bottom=0;right=0;pointerEvents=1;fontSize=11;" vertex="1" parent="S4ALjUtNJ2dEBJcH048C-245">
          <mxGeometry width="46" height="30" as="geometry">
            <mxRectangle width="46" height="30" as="alternateBounds" />
          </mxGeometry>
        </mxCell>
        <mxCell id="S4ALjUtNJ2dEBJcH048C-247" value="mar&lt;div&gt;15/04&lt;/div&gt;" style="shape=partialRectangle;html=1;whiteSpace=wrap;connectable=0;strokeColor=inherit;overflow=hidden;fillColor=none;top=0;left=0;bottom=0;right=0;pointerEvents=1;fontSize=11;" vertex="1" parent="S4ALjUtNJ2dEBJcH048C-245">
          <mxGeometry x="46" width="46" height="30" as="geometry">
            <mxRectangle width="46" height="30" as="alternateBounds" />
          </mxGeometry>
        </mxCell>
        <mxCell id="S4ALjUtNJ2dEBJcH048C-248" value="mer&lt;div&gt;16/04&lt;/div&gt;" style="shape=partialRectangle;html=1;whiteSpace=wrap;connectable=0;strokeColor=inherit;overflow=hidden;fillColor=none;top=0;left=0;bottom=0;right=0;pointerEvents=1;fontSize=11;" vertex="1" parent="S4ALjUtNJ2dEBJcH048C-245">
          <mxGeometry x="92" width="46" height="30" as="geometry">
            <mxRectangle width="46" height="30" as="alternateBounds" />
          </mxGeometry>
        </mxCell>
        <mxCell id="S4ALjUtNJ2dEBJcH048C-249" value="jeu&lt;div&gt;17/04&lt;/div&gt;" style="shape=partialRectangle;html=1;whiteSpace=wrap;connectable=0;strokeColor=inherit;overflow=hidden;fillColor=none;top=0;left=0;bottom=0;right=0;pointerEvents=1;fontSize=11;" vertex="1" parent="S4ALjUtNJ2dEBJcH048C-245">
          <mxGeometry x="138" width="46" height="30" as="geometry">
            <mxRectangle width="46" height="30" as="alternateBounds" />
          </mxGeometry>
        </mxCell>
        <mxCell id="S4ALjUtNJ2dEBJcH048C-250" value="ven&lt;div&gt;18/04&lt;/div&gt;" style="shape=partialRectangle;html=1;whiteSpace=wrap;connectable=0;strokeColor=inherit;overflow=hidden;fillColor=none;top=0;left=0;bottom=0;right=0;pointerEvents=1;fontSize=11;" vertex="1" parent="S4ALjUtNJ2dEBJcH048C-245">
          <mxGeometry x="184" width="46" height="30" as="geometry">
            <mxRectangle width="46" height="30" as="alternateBounds" />
          </mxGeometry>
        </mxCell>
        <mxCell id="S4ALjUtNJ2dEBJcH048C-251" value="" style="shape=tableRow;horizontal=0;startSize=0;swimlaneHead=0;swimlaneBody=0;strokeColor=inherit;top=0;left=0;bottom=0;right=0;collapsible=0;dropTarget=0;fillColor=none;points=[[0,0.5],[1,0.5]];portConstraint=eastwest;fontSize=11;" vertex="1" parent="S4ALjUtNJ2dEBJcH048C-244">
          <mxGeometry y="30" width="230" height="30" as="geometry" />
        </mxCell>
        <mxCell id="S4ALjUtNJ2dEBJcH048C-252" value="cde" style="shape=partialRectangle;html=1;whiteSpace=wrap;connectable=0;strokeColor=inherit;overflow=hidden;fillColor=none;top=0;left=0;bottom=0;right=0;pointerEvents=1;fontSize=11;" vertex="1" parent="S4ALjUtNJ2dEBJcH048C-251">
          <mxGeometry width="46" height="30" as="geometry">
            <mxRectangle width="46" height="30" as="alternateBounds" />
          </mxGeometry>
        </mxCell>
        <mxCell id="S4ALjUtNJ2dEBJcH048C-253" value="prepa&lt;div&gt;chg&lt;/div&gt;" style="shape=partialRectangle;html=1;whiteSpace=wrap;connectable=0;strokeColor=inherit;overflow=hidden;fillColor=none;top=0;left=0;bottom=0;right=0;pointerEvents=1;fontSize=11;" vertex="1" parent="S4ALjUtNJ2dEBJcH048C-251">
          <mxGeometry x="46" width="46" height="30" as="geometry">
            <mxRectangle width="46" height="30" as="alternateBounds" />
          </mxGeometry>
        </mxCell>
        <mxCell id="S4ALjUtNJ2dEBJcH048C-254" value="&lt;strike&gt;&lt;font style=&quot;color: rgb(255, 0, 0);&quot;&gt;liv&lt;/font&gt;&lt;/strike&gt;" style="shape=partialRectangle;html=1;whiteSpace=wrap;connectable=0;strokeColor=inherit;overflow=hidden;fillColor=none;top=0;left=0;bottom=0;right=0;pointerEvents=1;fontSize=11;" vertex="1" parent="S4ALjUtNJ2dEBJcH048C-251">
          <mxGeometry x="92" width="46" height="30" as="geometry">
            <mxRectangle width="46" height="30" as="alternateBounds" />
          </mxGeometry>
        </mxCell>
        <mxCell id="S4ALjUtNJ2dEBJcH048C-255" value="&lt;b&gt;&lt;font style=&quot;color: rgb(103, 171, 159);&quot;&gt;liv&lt;/font&gt;&lt;/b&gt;" style="shape=partialRectangle;html=1;whiteSpace=wrap;connectable=0;strokeColor=inherit;overflow=hidden;fillColor=none;top=0;left=0;bottom=0;right=0;pointerEvents=1;fontSize=11;" vertex="1" parent="S4ALjUtNJ2dEBJcH048C-251">
          <mxGeometry x="138" width="46" height="30" as="geometry">
            <mxRectangle width="46" height="30" as="alternateBounds" />
          </mxGeometry>
        </mxCell>
        <mxCell id="S4ALjUtNJ2dEBJcH048C-256" style="shape=partialRectangle;html=1;whiteSpace=wrap;connectable=0;strokeColor=inherit;overflow=hidden;fillColor=none;top=0;left=0;bottom=0;right=0;pointerEvents=1;fontSize=11;" vertex="1" parent="S4ALjUtNJ2dEBJcH048C-251">
          <mxGeometry x="184" width="46" height="30" as="geometry">
            <mxRectangle width="46" height="30" as="alternateBounds" />
          </mxGeometry>
        </mxCell>
        <mxCell id="S4ALjUtNJ2dEBJcH048C-329" value="" style="group" vertex="1" connectable="0" parent="WIyWlLk6GJQsqaUBKTNV-1">
          <mxGeometry x="330" y="304.5" width="260" height="110" as="geometry" />
        </mxCell>
        <mxCell id="S4ALjUtNJ2dEBJcH048C-227" value="" style="rounded=1;whiteSpace=wrap;html=1;fillColor=#fff2cc;strokeColor=#d6b656;" vertex="1" parent="S4ALjUtNJ2dEBJcH048C-329">
          <mxGeometry width="260" height="110" as="geometry" />
        </mxCell>
        <mxCell id="S4ALjUtNJ2dEBJcH048C-228" value="schema 1223&amp;nbsp;&lt;span style=&quot;background-color: transparent; color: light-dark(rgb(0, 0, 0), rgb(255, 255, 255));&quot;&gt;scapalsace&lt;/span&gt;" style="rounded=1;whiteSpace=wrap;html=1;fontSize=12;glass=0;strokeWidth=1;shadow=0;" vertex="1" parent="S4ALjUtNJ2dEBJcH048C-329">
          <mxGeometry x="28" y="10" width="210" height="16" as="geometry" />
        </mxCell>
        <mxCell id="S4ALjUtNJ2dEBJcH048C-229" value="" style="shape=table;startSize=0;container=1;collapsible=0;childLayout=tableLayout;fontSize=11;" vertex="1" parent="S4ALjUtNJ2dEBJcH048C-329">
          <mxGeometry x="20" y="36" width="230" height="60" as="geometry" />
        </mxCell>
        <mxCell id="S4ALjUtNJ2dEBJcH048C-230" value="" style="shape=tableRow;horizontal=0;startSize=0;swimlaneHead=0;swimlaneBody=0;strokeColor=inherit;top=0;left=0;bottom=0;right=0;collapsible=0;dropTarget=0;fillColor=none;points=[[0,0.5],[1,0.5]];portConstraint=eastwest;fontSize=11;" vertex="1" parent="S4ALjUtNJ2dEBJcH048C-229">
          <mxGeometry width="230" height="30" as="geometry" />
        </mxCell>
        <mxCell id="S4ALjUtNJ2dEBJcH048C-231" value="lun&lt;div&gt;14/04&lt;/div&gt;" style="shape=partialRectangle;html=1;whiteSpace=wrap;connectable=0;strokeColor=inherit;overflow=hidden;fillColor=none;top=0;left=0;bottom=0;right=0;pointerEvents=1;fontSize=11;" vertex="1" parent="S4ALjUtNJ2dEBJcH048C-230">
          <mxGeometry width="46" height="30" as="geometry">
            <mxRectangle width="46" height="30" as="alternateBounds" />
          </mxGeometry>
        </mxCell>
        <mxCell id="S4ALjUtNJ2dEBJcH048C-232" value="mar&lt;div&gt;15/04&lt;/div&gt;" style="shape=partialRectangle;html=1;whiteSpace=wrap;connectable=0;strokeColor=inherit;overflow=hidden;fillColor=none;top=0;left=0;bottom=0;right=0;pointerEvents=1;fontSize=11;" vertex="1" parent="S4ALjUtNJ2dEBJcH048C-230">
          <mxGeometry x="46" width="46" height="30" as="geometry">
            <mxRectangle width="46" height="30" as="alternateBounds" />
          </mxGeometry>
        </mxCell>
        <mxCell id="S4ALjUtNJ2dEBJcH048C-233" value="mer&lt;div&gt;16/04&lt;/div&gt;" style="shape=partialRectangle;html=1;whiteSpace=wrap;connectable=0;strokeColor=inherit;overflow=hidden;fillColor=none;top=0;left=0;bottom=0;right=0;pointerEvents=1;fontSize=11;" vertex="1" parent="S4ALjUtNJ2dEBJcH048C-230">
          <mxGeometry x="92" width="46" height="30" as="geometry">
            <mxRectangle width="46" height="30" as="alternateBounds" />
          </mxGeometry>
        </mxCell>
        <mxCell id="S4ALjUtNJ2dEBJcH048C-234" value="jeu&lt;div&gt;17/04&lt;/div&gt;" style="shape=partialRectangle;html=1;whiteSpace=wrap;connectable=0;strokeColor=inherit;overflow=hidden;fillColor=none;top=0;left=0;bottom=0;right=0;pointerEvents=1;fontSize=11;" vertex="1" parent="S4ALjUtNJ2dEBJcH048C-230">
          <mxGeometry x="138" width="46" height="30" as="geometry">
            <mxRectangle width="46" height="30" as="alternateBounds" />
          </mxGeometry>
        </mxCell>
        <mxCell id="S4ALjUtNJ2dEBJcH048C-235" value="ven&lt;div&gt;18/04&lt;/div&gt;" style="shape=partialRectangle;html=1;whiteSpace=wrap;connectable=0;strokeColor=inherit;overflow=hidden;fillColor=none;top=0;left=0;bottom=0;right=0;pointerEvents=1;fontSize=11;" vertex="1" parent="S4ALjUtNJ2dEBJcH048C-230">
          <mxGeometry x="184" width="46" height="30" as="geometry">
            <mxRectangle width="46" height="30" as="alternateBounds" />
          </mxGeometry>
        </mxCell>
        <mxCell id="S4ALjUtNJ2dEBJcH048C-236" value="" style="shape=tableRow;horizontal=0;startSize=0;swimlaneHead=0;swimlaneBody=0;strokeColor=inherit;top=0;left=0;bottom=0;right=0;collapsible=0;dropTarget=0;fillColor=none;points=[[0,0.5],[1,0.5]];portConstraint=eastwest;fontSize=11;" vertex="1" parent="S4ALjUtNJ2dEBJcH048C-229">
          <mxGeometry y="30" width="230" height="30" as="geometry" />
        </mxCell>
        <mxCell id="S4ALjUtNJ2dEBJcH048C-237" value="cde" style="shape=partialRectangle;html=1;whiteSpace=wrap;connectable=0;strokeColor=inherit;overflow=hidden;fillColor=none;top=0;left=0;bottom=0;right=0;pointerEvents=1;fontSize=11;" vertex="1" parent="S4ALjUtNJ2dEBJcH048C-236">
          <mxGeometry width="46" height="30" as="geometry">
            <mxRectangle width="46" height="30" as="alternateBounds" />
          </mxGeometry>
        </mxCell>
        <mxCell id="S4ALjUtNJ2dEBJcH048C-238" value="prepa&lt;div&gt;chg&lt;/div&gt;" style="shape=partialRectangle;html=1;whiteSpace=wrap;connectable=0;strokeColor=inherit;overflow=hidden;fillColor=none;top=0;left=0;bottom=0;right=0;pointerEvents=1;fontSize=11;" vertex="1" parent="S4ALjUtNJ2dEBJcH048C-236">
          <mxGeometry x="46" width="46" height="30" as="geometry">
            <mxRectangle width="46" height="30" as="alternateBounds" />
          </mxGeometry>
        </mxCell>
        <mxCell id="S4ALjUtNJ2dEBJcH048C-239" value="&lt;strike&gt;&lt;font style=&quot;color: rgb(255, 0, 0);&quot;&gt;liv&lt;/font&gt;&lt;/strike&gt;" style="shape=partialRectangle;html=1;whiteSpace=wrap;connectable=0;strokeColor=inherit;overflow=hidden;fillColor=none;top=0;left=0;bottom=0;right=0;pointerEvents=1;fontSize=11;" vertex="1" parent="S4ALjUtNJ2dEBJcH048C-236">
          <mxGeometry x="92" width="46" height="30" as="geometry">
            <mxRectangle width="46" height="30" as="alternateBounds" />
          </mxGeometry>
        </mxCell>
        <mxCell id="S4ALjUtNJ2dEBJcH048C-240" value="&lt;b&gt;&lt;font style=&quot;color: rgb(103, 171, 159);&quot;&gt;liv&lt;/font&gt;&lt;/b&gt;" style="shape=partialRectangle;html=1;whiteSpace=wrap;connectable=0;strokeColor=inherit;overflow=hidden;fillColor=none;top=0;left=0;bottom=0;right=0;pointerEvents=1;fontSize=11;" vertex="1" parent="S4ALjUtNJ2dEBJcH048C-236">
          <mxGeometry x="138" width="46" height="30" as="geometry">
            <mxRectangle width="46" height="30" as="alternateBounds" />
          </mxGeometry>
        </mxCell>
        <mxCell id="S4ALjUtNJ2dEBJcH048C-241" style="shape=partialRectangle;html=1;whiteSpace=wrap;connectable=0;strokeColor=inherit;overflow=hidden;fillColor=none;top=0;left=0;bottom=0;right=0;pointerEvents=1;fontSize=11;" vertex="1" parent="S4ALjUtNJ2dEBJcH048C-236">
          <mxGeometry x="184" width="46" height="30" as="geometry">
            <mxRectangle width="46" height="30" as="alternateBounds" />
          </mxGeometry>
        </mxCell>
        <mxCell id="S4ALjUtNJ2dEBJcH048C-330" value="" style="group" vertex="1" connectable="0" parent="WIyWlLk6GJQsqaUBKTNV-1">
          <mxGeometry x="490" y="80" width="260" height="120" as="geometry" />
        </mxCell>
        <mxCell id="S4ALjUtNJ2dEBJcH048C-209" value="" style="rounded=1;whiteSpace=wrap;html=1;fillColor=#dae8fc;strokeColor=#6c8ebf;" vertex="1" parent="S4ALjUtNJ2dEBJcH048C-330">
          <mxGeometry width="260" height="120" as="geometry" />
        </mxCell>
        <mxCell id="S4ALjUtNJ2dEBJcH048C-212" value="schema 1&lt;span style=&quot;background-color: transparent; color: light-dark(rgb(0, 0, 0), rgb(255, 255, 255));&quot;&gt;223&amp;nbsp;&lt;/span&gt;&lt;span style=&quot;background-color: transparent; color: light-dark(rgb(0, 0, 0), rgb(255, 255, 255));&quot;&gt;toutes centrales&lt;/span&gt;" style="rounded=1;whiteSpace=wrap;html=1;fontSize=12;glass=0;strokeWidth=1;shadow=0;" vertex="1" parent="S4ALjUtNJ2dEBJcH048C-330">
          <mxGeometry x="20" y="10" width="230" height="20" as="geometry" />
        </mxCell>
        <mxCell id="S4ALjUtNJ2dEBJcH048C-213" value="" style="shape=table;startSize=0;container=1;collapsible=0;childLayout=tableLayout;fontSize=11;" vertex="1" parent="S4ALjUtNJ2dEBJcH048C-330">
          <mxGeometry x="20" y="40" width="230" height="60" as="geometry" />
        </mxCell>
        <mxCell id="S4ALjUtNJ2dEBJcH048C-214" value="" style="shape=tableRow;horizontal=0;startSize=0;swimlaneHead=0;swimlaneBody=0;strokeColor=inherit;top=0;left=0;bottom=0;right=0;collapsible=0;dropTarget=0;fillColor=none;points=[[0,0.5],[1,0.5]];portConstraint=eastwest;fontSize=11;" vertex="1" parent="S4ALjUtNJ2dEBJcH048C-213">
          <mxGeometry width="230" height="30" as="geometry" />
        </mxCell>
        <mxCell id="S4ALjUtNJ2dEBJcH048C-215" value="lun&lt;div&gt;14/04&lt;/div&gt;" style="shape=partialRectangle;html=1;whiteSpace=wrap;connectable=0;strokeColor=inherit;overflow=hidden;fillColor=none;top=0;left=0;bottom=0;right=0;pointerEvents=1;fontSize=11;" vertex="1" parent="S4ALjUtNJ2dEBJcH048C-214">
          <mxGeometry width="46" height="30" as="geometry">
            <mxRectangle width="46" height="30" as="alternateBounds" />
          </mxGeometry>
        </mxCell>
        <mxCell id="S4ALjUtNJ2dEBJcH048C-216" value="mar&lt;div&gt;15/04&lt;/div&gt;" style="shape=partialRectangle;html=1;whiteSpace=wrap;connectable=0;strokeColor=inherit;overflow=hidden;fillColor=none;top=0;left=0;bottom=0;right=0;pointerEvents=1;fontSize=11;" vertex="1" parent="S4ALjUtNJ2dEBJcH048C-214">
          <mxGeometry x="46" width="46" height="30" as="geometry">
            <mxRectangle width="46" height="30" as="alternateBounds" />
          </mxGeometry>
        </mxCell>
        <mxCell id="S4ALjUtNJ2dEBJcH048C-217" value="mer&lt;div&gt;16/04&lt;/div&gt;" style="shape=partialRectangle;html=1;whiteSpace=wrap;connectable=0;strokeColor=inherit;overflow=hidden;fillColor=none;top=0;left=0;bottom=0;right=0;pointerEvents=1;fontSize=11;" vertex="1" parent="S4ALjUtNJ2dEBJcH048C-214">
          <mxGeometry x="92" width="46" height="30" as="geometry">
            <mxRectangle width="46" height="30" as="alternateBounds" />
          </mxGeometry>
        </mxCell>
        <mxCell id="S4ALjUtNJ2dEBJcH048C-218" value="jeu&lt;div&gt;17/04&lt;/div&gt;" style="shape=partialRectangle;html=1;whiteSpace=wrap;connectable=0;strokeColor=inherit;overflow=hidden;fillColor=none;top=0;left=0;bottom=0;right=0;pointerEvents=1;fontSize=11;" vertex="1" parent="S4ALjUtNJ2dEBJcH048C-214">
          <mxGeometry x="138" width="46" height="30" as="geometry">
            <mxRectangle width="46" height="30" as="alternateBounds" />
          </mxGeometry>
        </mxCell>
        <mxCell id="S4ALjUtNJ2dEBJcH048C-219" value="ven&lt;div&gt;18/04&lt;/div&gt;" style="shape=partialRectangle;html=1;whiteSpace=wrap;connectable=0;strokeColor=inherit;overflow=hidden;fillColor=none;top=0;left=0;bottom=0;right=0;pointerEvents=1;fontSize=11;" vertex="1" parent="S4ALjUtNJ2dEBJcH048C-214">
          <mxGeometry x="184" width="46" height="30" as="geometry">
            <mxRectangle width="46" height="30" as="alternateBounds" />
          </mxGeometry>
        </mxCell>
        <mxCell id="S4ALjUtNJ2dEBJcH048C-220" value="" style="shape=tableRow;horizontal=0;startSize=0;swimlaneHead=0;swimlaneBody=0;strokeColor=inherit;top=0;left=0;bottom=0;right=0;collapsible=0;dropTarget=0;fillColor=none;points=[[0,0.5],[1,0.5]];portConstraint=eastwest;fontSize=11;" vertex="1" parent="S4ALjUtNJ2dEBJcH048C-213">
          <mxGeometry y="30" width="230" height="30" as="geometry" />
        </mxCell>
        <mxCell id="S4ALjUtNJ2dEBJcH048C-221" value="cde" style="shape=partialRectangle;html=1;whiteSpace=wrap;connectable=0;strokeColor=inherit;overflow=hidden;fillColor=none;top=0;left=0;bottom=0;right=0;pointerEvents=1;fontSize=11;" vertex="1" parent="S4ALjUtNJ2dEBJcH048C-220">
          <mxGeometry width="46" height="30" as="geometry">
            <mxRectangle width="46" height="30" as="alternateBounds" />
          </mxGeometry>
        </mxCell>
        <mxCell id="S4ALjUtNJ2dEBJcH048C-222" value="prepa&lt;div&gt;chg&lt;/div&gt;" style="shape=partialRectangle;html=1;whiteSpace=wrap;connectable=0;strokeColor=inherit;overflow=hidden;fillColor=none;top=0;left=0;bottom=0;right=0;pointerEvents=1;fontSize=11;" vertex="1" parent="S4ALjUtNJ2dEBJcH048C-220">
          <mxGeometry x="46" width="46" height="30" as="geometry">
            <mxRectangle width="46" height="30" as="alternateBounds" />
          </mxGeometry>
        </mxCell>
        <mxCell id="S4ALjUtNJ2dEBJcH048C-223" value="&lt;strike&gt;&lt;font style=&quot;color: rgb(255, 0, 0);&quot;&gt;liv&lt;/font&gt;&lt;/strike&gt;" style="shape=partialRectangle;html=1;whiteSpace=wrap;connectable=0;strokeColor=inherit;overflow=hidden;fillColor=none;top=0;left=0;bottom=0;right=0;pointerEvents=1;fontSize=11;" vertex="1" parent="S4ALjUtNJ2dEBJcH048C-220">
          <mxGeometry x="92" width="46" height="30" as="geometry">
            <mxRectangle width="46" height="30" as="alternateBounds" />
          </mxGeometry>
        </mxCell>
        <mxCell id="S4ALjUtNJ2dEBJcH048C-224" value="&lt;b&gt;&lt;font style=&quot;color: rgb(103, 171, 159);&quot;&gt;liv&lt;/font&gt;&lt;/b&gt;" style="shape=partialRectangle;html=1;whiteSpace=wrap;connectable=0;strokeColor=inherit;overflow=hidden;fillColor=none;top=0;left=0;bottom=0;right=0;pointerEvents=1;fontSize=11;" vertex="1" parent="S4ALjUtNJ2dEBJcH048C-220">
          <mxGeometry x="138" width="46" height="30" as="geometry">
            <mxRectangle width="46" height="30" as="alternateBounds" />
          </mxGeometry>
        </mxCell>
        <mxCell id="S4ALjUtNJ2dEBJcH048C-225" style="shape=partialRectangle;html=1;whiteSpace=wrap;connectable=0;strokeColor=inherit;overflow=hidden;fillColor=none;top=0;left=0;bottom=0;right=0;pointerEvents=1;fontSize=11;" vertex="1" parent="S4ALjUtNJ2dEBJcH048C-220">
          <mxGeometry x="184" width="46" height="30" as="geometry">
            <mxRectangle width="46" height="30" as="alternateBounds" />
          </mxGeometry>
        </mxCell>
        <mxCell id="S4ALjUtNJ2dEBJcH048C-420" style="edgeStyle=orthogonalEdgeStyle;rounded=0;orthogonalLoop=1;jettySize=auto;html=1;exitX=1;exitY=0.5;exitDx=0;exitDy=0;" edge="1" parent="WIyWlLk6GJQsqaUBKTNV-1" source="S4ALjUtNJ2dEBJcH048C-331" target="S4ALjUtNJ2dEBJcH048C-333">
          <mxGeometry relative="1" as="geometry" />
        </mxCell>
        <mxCell id="S4ALjUtNJ2dEBJcH048C-331" value="décalage de la livraison du jeudi au vendredi" style="rounded=0;whiteSpace=wrap;html=1;" vertex="1" parent="WIyWlLk6GJQsqaUBKTNV-1">
          <mxGeometry x="120" y="590" width="185" height="30" as="geometry" />
        </mxCell>
        <mxCell id="S4ALjUtNJ2dEBJcH048C-332" value="" style="group" vertex="1" connectable="0" parent="WIyWlLk6GJQsqaUBKTNV-1">
          <mxGeometry x="516.75" y="550" width="260" height="110" as="geometry" />
        </mxCell>
        <mxCell id="S4ALjUtNJ2dEBJcH048C-333" value="" style="rounded=1;whiteSpace=wrap;html=1;fillColor=#fff2cc;strokeColor=#d6b656;" vertex="1" parent="S4ALjUtNJ2dEBJcH048C-332">
          <mxGeometry width="260" height="110" as="geometry" />
        </mxCell>
        <mxCell id="S4ALjUtNJ2dEBJcH048C-334" value="schema 1223&amp;nbsp;&lt;span style=&quot;background-color: transparent; color: light-dark(rgb(0, 0, 0), rgb(255, 255, 255));&quot;&gt;scapalsace&lt;/span&gt;" style="rounded=1;whiteSpace=wrap;html=1;fontSize=12;glass=0;strokeWidth=1;shadow=0;" vertex="1" parent="S4ALjUtNJ2dEBJcH048C-332">
          <mxGeometry x="28" y="10" width="210" height="16" as="geometry" />
        </mxCell>
        <mxCell id="S4ALjUtNJ2dEBJcH048C-335" value="" style="shape=table;startSize=0;container=1;collapsible=0;childLayout=tableLayout;fontSize=11;" vertex="1" parent="S4ALjUtNJ2dEBJcH048C-332">
          <mxGeometry x="20" y="36" width="230" height="60" as="geometry" />
        </mxCell>
        <mxCell id="S4ALjUtNJ2dEBJcH048C-336" value="" style="shape=tableRow;horizontal=0;startSize=0;swimlaneHead=0;swimlaneBody=0;strokeColor=inherit;top=0;left=0;bottom=0;right=0;collapsible=0;dropTarget=0;fillColor=none;points=[[0,0.5],[1,0.5]];portConstraint=eastwest;fontSize=11;" vertex="1" parent="S4ALjUtNJ2dEBJcH048C-335">
          <mxGeometry width="230" height="30" as="geometry" />
        </mxCell>
        <mxCell id="S4ALjUtNJ2dEBJcH048C-337" value="lun&lt;div&gt;14/04&lt;/div&gt;" style="shape=partialRectangle;html=1;whiteSpace=wrap;connectable=0;strokeColor=inherit;overflow=hidden;fillColor=none;top=0;left=0;bottom=0;right=0;pointerEvents=1;fontSize=11;" vertex="1" parent="S4ALjUtNJ2dEBJcH048C-336">
          <mxGeometry width="46" height="30" as="geometry">
            <mxRectangle width="46" height="30" as="alternateBounds" />
          </mxGeometry>
        </mxCell>
        <mxCell id="S4ALjUtNJ2dEBJcH048C-338" value="mar&lt;div&gt;15/04&lt;/div&gt;" style="shape=partialRectangle;html=1;whiteSpace=wrap;connectable=0;strokeColor=inherit;overflow=hidden;fillColor=none;top=0;left=0;bottom=0;right=0;pointerEvents=1;fontSize=11;" vertex="1" parent="S4ALjUtNJ2dEBJcH048C-336">
          <mxGeometry x="46" width="46" height="30" as="geometry">
            <mxRectangle width="46" height="30" as="alternateBounds" />
          </mxGeometry>
        </mxCell>
        <mxCell id="S4ALjUtNJ2dEBJcH048C-339" value="mer&lt;div&gt;16/04&lt;/div&gt;" style="shape=partialRectangle;html=1;whiteSpace=wrap;connectable=0;strokeColor=inherit;overflow=hidden;fillColor=none;top=0;left=0;bottom=0;right=0;pointerEvents=1;fontSize=11;" vertex="1" parent="S4ALjUtNJ2dEBJcH048C-336">
          <mxGeometry x="92" width="46" height="30" as="geometry">
            <mxRectangle width="46" height="30" as="alternateBounds" />
          </mxGeometry>
        </mxCell>
        <mxCell id="S4ALjUtNJ2dEBJcH048C-340" value="jeu&lt;div&gt;17/04&lt;/div&gt;" style="shape=partialRectangle;html=1;whiteSpace=wrap;connectable=0;strokeColor=inherit;overflow=hidden;fillColor=none;top=0;left=0;bottom=0;right=0;pointerEvents=1;fontSize=11;" vertex="1" parent="S4ALjUtNJ2dEBJcH048C-336">
          <mxGeometry x="138" width="46" height="30" as="geometry">
            <mxRectangle width="46" height="30" as="alternateBounds" />
          </mxGeometry>
        </mxCell>
        <mxCell id="S4ALjUtNJ2dEBJcH048C-341" value="ven&lt;div&gt;18/04&lt;/div&gt;" style="shape=partialRectangle;html=1;whiteSpace=wrap;connectable=0;strokeColor=inherit;overflow=hidden;fillColor=none;top=0;left=0;bottom=0;right=0;pointerEvents=1;fontSize=11;" vertex="1" parent="S4ALjUtNJ2dEBJcH048C-336">
          <mxGeometry x="184" width="46" height="30" as="geometry">
            <mxRectangle width="46" height="30" as="alternateBounds" />
          </mxGeometry>
        </mxCell>
        <mxCell id="S4ALjUtNJ2dEBJcH048C-342" value="" style="shape=tableRow;horizontal=0;startSize=0;swimlaneHead=0;swimlaneBody=0;strokeColor=inherit;top=0;left=0;bottom=0;right=0;collapsible=0;dropTarget=0;fillColor=none;points=[[0,0.5],[1,0.5]];portConstraint=eastwest;fontSize=11;" vertex="1" parent="S4ALjUtNJ2dEBJcH048C-335">
          <mxGeometry y="30" width="230" height="30" as="geometry" />
        </mxCell>
        <mxCell id="S4ALjUtNJ2dEBJcH048C-343" value="cde" style="shape=partialRectangle;html=1;whiteSpace=wrap;connectable=0;strokeColor=inherit;overflow=hidden;fillColor=none;top=0;left=0;bottom=0;right=0;pointerEvents=1;fontSize=11;" vertex="1" parent="S4ALjUtNJ2dEBJcH048C-342">
          <mxGeometry width="46" height="30" as="geometry">
            <mxRectangle width="46" height="30" as="alternateBounds" />
          </mxGeometry>
        </mxCell>
        <mxCell id="S4ALjUtNJ2dEBJcH048C-344" value="prepa&lt;div&gt;chg&lt;/div&gt;" style="shape=partialRectangle;html=1;whiteSpace=wrap;connectable=0;strokeColor=inherit;overflow=hidden;fillColor=none;top=0;left=0;bottom=0;right=0;pointerEvents=1;fontSize=11;" vertex="1" parent="S4ALjUtNJ2dEBJcH048C-342">
          <mxGeometry x="46" width="46" height="30" as="geometry">
            <mxRectangle width="46" height="30" as="alternateBounds" />
          </mxGeometry>
        </mxCell>
        <mxCell id="S4ALjUtNJ2dEBJcH048C-345" value="" style="shape=partialRectangle;html=1;whiteSpace=wrap;connectable=0;strokeColor=inherit;overflow=hidden;fillColor=none;top=0;left=0;bottom=0;right=0;pointerEvents=1;fontSize=11;" vertex="1" parent="S4ALjUtNJ2dEBJcH048C-342">
          <mxGeometry x="92" width="46" height="30" as="geometry">
            <mxRectangle width="46" height="30" as="alternateBounds" />
          </mxGeometry>
        </mxCell>
        <mxCell id="S4ALjUtNJ2dEBJcH048C-346" value="&lt;strike&gt;&lt;font style=&quot;color: rgb(255, 0, 0);&quot;&gt;liv&lt;/font&gt;&lt;/strike&gt;" style="shape=partialRectangle;html=1;whiteSpace=wrap;connectable=0;strokeColor=inherit;overflow=hidden;fillColor=none;top=0;left=0;bottom=0;right=0;pointerEvents=1;fontSize=11;" vertex="1" parent="S4ALjUtNJ2dEBJcH048C-342">
          <mxGeometry x="138" width="46" height="30" as="geometry">
            <mxRectangle width="46" height="30" as="alternateBounds" />
          </mxGeometry>
        </mxCell>
        <mxCell id="S4ALjUtNJ2dEBJcH048C-347" value="&lt;b&gt;&lt;font style=&quot;color: rgb(103, 171, 159);&quot;&gt;liv&lt;/font&gt;&lt;/b&gt;" style="shape=partialRectangle;html=1;whiteSpace=wrap;connectable=0;strokeColor=inherit;overflow=hidden;fillColor=none;top=0;left=0;bottom=0;right=0;pointerEvents=1;fontSize=11;" vertex="1" parent="S4ALjUtNJ2dEBJcH048C-342">
          <mxGeometry x="184" width="46" height="30" as="geometry">
            <mxRectangle width="46" height="30" as="alternateBounds" />
          </mxGeometry>
        </mxCell>
        <mxCell id="S4ALjUtNJ2dEBJcH048C-348" value="&lt;span style=&quot;background-color: rgb(255, 255, 255);&quot;&gt;pas de répercussion sur le schema global&lt;/span&gt;" style="rounded=0;whiteSpace=wrap;html=1;" vertex="1" parent="WIyWlLk6GJQsqaUBKTNV-1">
          <mxGeometry x="330" y="720" width="230" height="40" as="geometry" />
        </mxCell>
        <mxCell id="S4ALjUtNJ2dEBJcH048C-349" value="&lt;span style=&quot;background-color: rgb(255, 255, 255);&quot;&gt;pas de répercussion sur les autres centrales&lt;/span&gt;" style="rounded=0;whiteSpace=wrap;html=1;" vertex="1" parent="WIyWlLk6GJQsqaUBKTNV-1">
          <mxGeometry x="760" y="720" width="230" height="40" as="geometry" />
        </mxCell>
        <mxCell id="S4ALjUtNJ2dEBJcH048C-366" value="" style="group" vertex="1" connectable="0" parent="WIyWlLk6GJQsqaUBKTNV-1">
          <mxGeometry x="310" y="790" width="260" height="120" as="geometry" />
        </mxCell>
        <mxCell id="S4ALjUtNJ2dEBJcH048C-367" value="" style="rounded=1;whiteSpace=wrap;html=1;fillColor=#dae8fc;strokeColor=#6c8ebf;" vertex="1" parent="S4ALjUtNJ2dEBJcH048C-366">
          <mxGeometry width="260" height="120" as="geometry" />
        </mxCell>
        <mxCell id="S4ALjUtNJ2dEBJcH048C-368" value="schema 1&lt;span style=&quot;background-color: transparent; color: light-dark(rgb(0, 0, 0), rgb(255, 255, 255));&quot;&gt;223&amp;nbsp;&lt;/span&gt;&lt;span style=&quot;background-color: transparent; color: light-dark(rgb(0, 0, 0), rgb(255, 255, 255));&quot;&gt;toutes centrales&lt;/span&gt;" style="rounded=1;whiteSpace=wrap;html=1;fontSize=12;glass=0;strokeWidth=1;shadow=0;" vertex="1" parent="S4ALjUtNJ2dEBJcH048C-366">
          <mxGeometry x="20" y="10" width="230" height="20" as="geometry" />
        </mxCell>
        <mxCell id="S4ALjUtNJ2dEBJcH048C-369" value="" style="shape=table;startSize=0;container=1;collapsible=0;childLayout=tableLayout;fontSize=11;" vertex="1" parent="S4ALjUtNJ2dEBJcH048C-366">
          <mxGeometry x="20" y="40" width="230" height="60" as="geometry" />
        </mxCell>
        <mxCell id="S4ALjUtNJ2dEBJcH048C-370" value="" style="shape=tableRow;horizontal=0;startSize=0;swimlaneHead=0;swimlaneBody=0;strokeColor=inherit;top=0;left=0;bottom=0;right=0;collapsible=0;dropTarget=0;fillColor=none;points=[[0,0.5],[1,0.5]];portConstraint=eastwest;fontSize=11;" vertex="1" parent="S4ALjUtNJ2dEBJcH048C-369">
          <mxGeometry width="230" height="30" as="geometry" />
        </mxCell>
        <mxCell id="S4ALjUtNJ2dEBJcH048C-371" value="lun&lt;div&gt;14/04&lt;/div&gt;" style="shape=partialRectangle;html=1;whiteSpace=wrap;connectable=0;strokeColor=inherit;overflow=hidden;fillColor=none;top=0;left=0;bottom=0;right=0;pointerEvents=1;fontSize=11;" vertex="1" parent="S4ALjUtNJ2dEBJcH048C-370">
          <mxGeometry width="46" height="30" as="geometry">
            <mxRectangle width="46" height="30" as="alternateBounds" />
          </mxGeometry>
        </mxCell>
        <mxCell id="S4ALjUtNJ2dEBJcH048C-372" value="mar&lt;div&gt;15/04&lt;/div&gt;" style="shape=partialRectangle;html=1;whiteSpace=wrap;connectable=0;strokeColor=inherit;overflow=hidden;fillColor=none;top=0;left=0;bottom=0;right=0;pointerEvents=1;fontSize=11;" vertex="1" parent="S4ALjUtNJ2dEBJcH048C-370">
          <mxGeometry x="46" width="46" height="30" as="geometry">
            <mxRectangle width="46" height="30" as="alternateBounds" />
          </mxGeometry>
        </mxCell>
        <mxCell id="S4ALjUtNJ2dEBJcH048C-373" value="mer&lt;div&gt;16/04&lt;/div&gt;" style="shape=partialRectangle;html=1;whiteSpace=wrap;connectable=0;strokeColor=inherit;overflow=hidden;fillColor=none;top=0;left=0;bottom=0;right=0;pointerEvents=1;fontSize=11;" vertex="1" parent="S4ALjUtNJ2dEBJcH048C-370">
          <mxGeometry x="92" width="46" height="30" as="geometry">
            <mxRectangle width="46" height="30" as="alternateBounds" />
          </mxGeometry>
        </mxCell>
        <mxCell id="S4ALjUtNJ2dEBJcH048C-374" value="jeu&lt;div&gt;17/04&lt;/div&gt;" style="shape=partialRectangle;html=1;whiteSpace=wrap;connectable=0;strokeColor=inherit;overflow=hidden;fillColor=none;top=0;left=0;bottom=0;right=0;pointerEvents=1;fontSize=11;" vertex="1" parent="S4ALjUtNJ2dEBJcH048C-370">
          <mxGeometry x="138" width="46" height="30" as="geometry">
            <mxRectangle width="46" height="30" as="alternateBounds" />
          </mxGeometry>
        </mxCell>
        <mxCell id="S4ALjUtNJ2dEBJcH048C-375" value="ven&lt;div&gt;18/04&lt;/div&gt;" style="shape=partialRectangle;html=1;whiteSpace=wrap;connectable=0;strokeColor=inherit;overflow=hidden;fillColor=none;top=0;left=0;bottom=0;right=0;pointerEvents=1;fontSize=11;" vertex="1" parent="S4ALjUtNJ2dEBJcH048C-370">
          <mxGeometry x="184" width="46" height="30" as="geometry">
            <mxRectangle width="46" height="30" as="alternateBounds" />
          </mxGeometry>
        </mxCell>
        <mxCell id="S4ALjUtNJ2dEBJcH048C-376" value="" style="shape=tableRow;horizontal=0;startSize=0;swimlaneHead=0;swimlaneBody=0;strokeColor=inherit;top=0;left=0;bottom=0;right=0;collapsible=0;dropTarget=0;fillColor=none;points=[[0,0.5],[1,0.5]];portConstraint=eastwest;fontSize=11;" vertex="1" parent="S4ALjUtNJ2dEBJcH048C-369">
          <mxGeometry y="30" width="230" height="30" as="geometry" />
        </mxCell>
        <mxCell id="S4ALjUtNJ2dEBJcH048C-377" value="cde" style="shape=partialRectangle;html=1;whiteSpace=wrap;connectable=0;strokeColor=inherit;overflow=hidden;fillColor=none;top=0;left=0;bottom=0;right=0;pointerEvents=1;fontSize=11;" vertex="1" parent="S4ALjUtNJ2dEBJcH048C-376">
          <mxGeometry width="46" height="30" as="geometry">
            <mxRectangle width="46" height="30" as="alternateBounds" />
          </mxGeometry>
        </mxCell>
        <mxCell id="S4ALjUtNJ2dEBJcH048C-378" value="prepa&lt;div&gt;chg&lt;/div&gt;" style="shape=partialRectangle;html=1;whiteSpace=wrap;connectable=0;strokeColor=inherit;overflow=hidden;fillColor=none;top=0;left=0;bottom=0;right=0;pointerEvents=1;fontSize=11;" vertex="1" parent="S4ALjUtNJ2dEBJcH048C-376">
          <mxGeometry x="46" width="46" height="30" as="geometry">
            <mxRectangle width="46" height="30" as="alternateBounds" />
          </mxGeometry>
        </mxCell>
        <mxCell id="S4ALjUtNJ2dEBJcH048C-379" value="&lt;strike&gt;&lt;font style=&quot;color: rgb(255, 0, 0);&quot;&gt;liv&lt;/font&gt;&lt;/strike&gt;" style="shape=partialRectangle;html=1;whiteSpace=wrap;connectable=0;strokeColor=inherit;overflow=hidden;fillColor=none;top=0;left=0;bottom=0;right=0;pointerEvents=1;fontSize=11;" vertex="1" parent="S4ALjUtNJ2dEBJcH048C-376">
          <mxGeometry x="92" width="46" height="30" as="geometry">
            <mxRectangle width="46" height="30" as="alternateBounds" />
          </mxGeometry>
        </mxCell>
        <mxCell id="S4ALjUtNJ2dEBJcH048C-380" value="&lt;b&gt;&lt;font style=&quot;color: rgb(103, 171, 159);&quot;&gt;liv&lt;/font&gt;&lt;/b&gt;" style="shape=partialRectangle;html=1;whiteSpace=wrap;connectable=0;strokeColor=inherit;overflow=hidden;fillColor=none;top=0;left=0;bottom=0;right=0;pointerEvents=1;fontSize=11;" vertex="1" parent="S4ALjUtNJ2dEBJcH048C-376">
          <mxGeometry x="138" width="46" height="30" as="geometry">
            <mxRectangle width="46" height="30" as="alternateBounds" />
          </mxGeometry>
        </mxCell>
        <mxCell id="S4ALjUtNJ2dEBJcH048C-381" style="shape=partialRectangle;html=1;whiteSpace=wrap;connectable=0;strokeColor=inherit;overflow=hidden;fillColor=none;top=0;left=0;bottom=0;right=0;pointerEvents=1;fontSize=11;" vertex="1" parent="S4ALjUtNJ2dEBJcH048C-376">
          <mxGeometry x="184" width="46" height="30" as="geometry">
            <mxRectangle width="46" height="30" as="alternateBounds" />
          </mxGeometry>
        </mxCell>
        <mxCell id="S4ALjUtNJ2dEBJcH048C-398" value="" style="group" vertex="1" connectable="0" parent="WIyWlLk6GJQsqaUBKTNV-1">
          <mxGeometry x="750" y="790" width="260" height="115" as="geometry" />
        </mxCell>
        <mxCell id="S4ALjUtNJ2dEBJcH048C-399" value="" style="rounded=1;whiteSpace=wrap;html=1;fillColor=#fff2cc;strokeColor=#d6b656;" vertex="1" parent="S4ALjUtNJ2dEBJcH048C-398">
          <mxGeometry width="260" height="115" as="geometry" />
        </mxCell>
        <mxCell id="S4ALjUtNJ2dEBJcH048C-400" value="schema 1223&amp;nbsp;&lt;span style=&quot;background-color: transparent; color: light-dark(rgb(0, 0, 0), rgb(255, 255, 255));&quot;&gt;scapest&lt;/span&gt;" style="rounded=1;whiteSpace=wrap;html=1;fontSize=12;glass=0;strokeWidth=1;shadow=0;" vertex="1" parent="S4ALjUtNJ2dEBJcH048C-398">
          <mxGeometry x="17" y="10" width="230" height="15" as="geometry" />
        </mxCell>
        <mxCell id="S4ALjUtNJ2dEBJcH048C-401" value="" style="shape=table;startSize=0;container=1;collapsible=0;childLayout=tableLayout;fontSize=11;" vertex="1" parent="S4ALjUtNJ2dEBJcH048C-398">
          <mxGeometry x="20" y="35" width="230" height="60" as="geometry" />
        </mxCell>
        <mxCell id="S4ALjUtNJ2dEBJcH048C-402" value="" style="shape=tableRow;horizontal=0;startSize=0;swimlaneHead=0;swimlaneBody=0;strokeColor=inherit;top=0;left=0;bottom=0;right=0;collapsible=0;dropTarget=0;fillColor=none;points=[[0,0.5],[1,0.5]];portConstraint=eastwest;fontSize=11;" vertex="1" parent="S4ALjUtNJ2dEBJcH048C-401">
          <mxGeometry width="230" height="30" as="geometry" />
        </mxCell>
        <mxCell id="S4ALjUtNJ2dEBJcH048C-403" value="lun&lt;div&gt;14/04&lt;/div&gt;" style="shape=partialRectangle;html=1;whiteSpace=wrap;connectable=0;strokeColor=inherit;overflow=hidden;fillColor=none;top=0;left=0;bottom=0;right=0;pointerEvents=1;fontSize=11;" vertex="1" parent="S4ALjUtNJ2dEBJcH048C-402">
          <mxGeometry width="46" height="30" as="geometry">
            <mxRectangle width="46" height="30" as="alternateBounds" />
          </mxGeometry>
        </mxCell>
        <mxCell id="S4ALjUtNJ2dEBJcH048C-404" value="mar&lt;div&gt;15/04&lt;/div&gt;" style="shape=partialRectangle;html=1;whiteSpace=wrap;connectable=0;strokeColor=inherit;overflow=hidden;fillColor=none;top=0;left=0;bottom=0;right=0;pointerEvents=1;fontSize=11;" vertex="1" parent="S4ALjUtNJ2dEBJcH048C-402">
          <mxGeometry x="46" width="46" height="30" as="geometry">
            <mxRectangle width="46" height="30" as="alternateBounds" />
          </mxGeometry>
        </mxCell>
        <mxCell id="S4ALjUtNJ2dEBJcH048C-405" value="mer&lt;div&gt;16/04&lt;/div&gt;" style="shape=partialRectangle;html=1;whiteSpace=wrap;connectable=0;strokeColor=inherit;overflow=hidden;fillColor=none;top=0;left=0;bottom=0;right=0;pointerEvents=1;fontSize=11;" vertex="1" parent="S4ALjUtNJ2dEBJcH048C-402">
          <mxGeometry x="92" width="46" height="30" as="geometry">
            <mxRectangle width="46" height="30" as="alternateBounds" />
          </mxGeometry>
        </mxCell>
        <mxCell id="S4ALjUtNJ2dEBJcH048C-406" value="jeu&lt;div&gt;17/04&lt;/div&gt;" style="shape=partialRectangle;html=1;whiteSpace=wrap;connectable=0;strokeColor=inherit;overflow=hidden;fillColor=none;top=0;left=0;bottom=0;right=0;pointerEvents=1;fontSize=11;" vertex="1" parent="S4ALjUtNJ2dEBJcH048C-402">
          <mxGeometry x="138" width="46" height="30" as="geometry">
            <mxRectangle width="46" height="30" as="alternateBounds" />
          </mxGeometry>
        </mxCell>
        <mxCell id="S4ALjUtNJ2dEBJcH048C-407" value="ven&lt;div&gt;18/04&lt;/div&gt;" style="shape=partialRectangle;html=1;whiteSpace=wrap;connectable=0;strokeColor=inherit;overflow=hidden;fillColor=none;top=0;left=0;bottom=0;right=0;pointerEvents=1;fontSize=11;" vertex="1" parent="S4ALjUtNJ2dEBJcH048C-402">
          <mxGeometry x="184" width="46" height="30" as="geometry">
            <mxRectangle width="46" height="30" as="alternateBounds" />
          </mxGeometry>
        </mxCell>
        <mxCell id="S4ALjUtNJ2dEBJcH048C-408" value="" style="shape=tableRow;horizontal=0;startSize=0;swimlaneHead=0;swimlaneBody=0;strokeColor=inherit;top=0;left=0;bottom=0;right=0;collapsible=0;dropTarget=0;fillColor=none;points=[[0,0.5],[1,0.5]];portConstraint=eastwest;fontSize=11;" vertex="1" parent="S4ALjUtNJ2dEBJcH048C-401">
          <mxGeometry y="30" width="230" height="30" as="geometry" />
        </mxCell>
        <mxCell id="S4ALjUtNJ2dEBJcH048C-409" value="cde" style="shape=partialRectangle;html=1;whiteSpace=wrap;connectable=0;strokeColor=inherit;overflow=hidden;fillColor=none;top=0;left=0;bottom=0;right=0;pointerEvents=1;fontSize=11;" vertex="1" parent="S4ALjUtNJ2dEBJcH048C-408">
          <mxGeometry width="46" height="30" as="geometry">
            <mxRectangle width="46" height="30" as="alternateBounds" />
          </mxGeometry>
        </mxCell>
        <mxCell id="S4ALjUtNJ2dEBJcH048C-410" value="prepa&lt;div&gt;chg&lt;/div&gt;" style="shape=partialRectangle;html=1;whiteSpace=wrap;connectable=0;strokeColor=inherit;overflow=hidden;fillColor=none;top=0;left=0;bottom=0;right=0;pointerEvents=1;fontSize=11;" vertex="1" parent="S4ALjUtNJ2dEBJcH048C-408">
          <mxGeometry x="46" width="46" height="30" as="geometry">
            <mxRectangle width="46" height="30" as="alternateBounds" />
          </mxGeometry>
        </mxCell>
        <mxCell id="S4ALjUtNJ2dEBJcH048C-411" value="&lt;strike&gt;&lt;font style=&quot;color: rgb(255, 0, 0);&quot;&gt;liv&lt;/font&gt;&lt;/strike&gt;" style="shape=partialRectangle;html=1;whiteSpace=wrap;connectable=0;strokeColor=inherit;overflow=hidden;fillColor=none;top=0;left=0;bottom=0;right=0;pointerEvents=1;fontSize=11;" vertex="1" parent="S4ALjUtNJ2dEBJcH048C-408">
          <mxGeometry x="92" width="46" height="30" as="geometry">
            <mxRectangle width="46" height="30" as="alternateBounds" />
          </mxGeometry>
        </mxCell>
        <mxCell id="S4ALjUtNJ2dEBJcH048C-412" value="&lt;b&gt;&lt;font style=&quot;color: rgb(103, 171, 159);&quot;&gt;liv&lt;/font&gt;&lt;/b&gt;" style="shape=partialRectangle;html=1;whiteSpace=wrap;connectable=0;strokeColor=inherit;overflow=hidden;fillColor=none;top=0;left=0;bottom=0;right=0;pointerEvents=1;fontSize=11;" vertex="1" parent="S4ALjUtNJ2dEBJcH048C-408">
          <mxGeometry x="138" width="46" height="30" as="geometry">
            <mxRectangle width="46" height="30" as="alternateBounds" />
          </mxGeometry>
        </mxCell>
        <mxCell id="S4ALjUtNJ2dEBJcH048C-413" style="shape=partialRectangle;html=1;whiteSpace=wrap;connectable=0;strokeColor=inherit;overflow=hidden;fillColor=none;top=0;left=0;bottom=0;right=0;pointerEvents=1;fontSize=11;" vertex="1" parent="S4ALjUtNJ2dEBJcH048C-408">
          <mxGeometry x="184" width="46" height="30" as="geometry">
            <mxRectangle width="46" height="30" as="alternateBounds" />
          </mxGeometry>
        </mxCell>
        <mxCell id="S4ALjUtNJ2dEBJcH048C-416" style="edgeStyle=orthogonalEdgeStyle;rounded=0;orthogonalLoop=1;jettySize=auto;html=1;exitX=0.5;exitY=1;exitDx=0;exitDy=0;strokeColor=#FF0000;startArrow=cross;startFill=0;endArrow=cross;endFill=0;" edge="1" parent="WIyWlLk6GJQsqaUBKTNV-1" source="S4ALjUtNJ2dEBJcH048C-333" target="S4ALjUtNJ2dEBJcH048C-348">
          <mxGeometry relative="1" as="geometry" />
        </mxCell>
        <mxCell id="S4ALjUtNJ2dEBJcH048C-417" style="edgeStyle=orthogonalEdgeStyle;rounded=0;orthogonalLoop=1;jettySize=auto;html=1;exitX=0.5;exitY=1;exitDx=0;exitDy=0;strokeColor=#FF0000;startArrow=cross;startFill=0;endArrow=cross;endFill=0;" edge="1" parent="WIyWlLk6GJQsqaUBKTNV-1" source="S4ALjUtNJ2dEBJcH048C-333" target="S4ALjUtNJ2dEBJcH048C-349">
          <mxGeometry relative="1" as="geometry" />
        </mxCell>
        <mxCell id="S4ALjUtNJ2dEBJcH048C-418" value="" style="endArrow=classic;html=1;rounded=0;" edge="1" parent="WIyWlLk6GJQsqaUBKTNV-1" source="S4ALjUtNJ2dEBJcH048C-318" target="S4ALjUtNJ2dEBJcH048C-261">
          <mxGeometry width="50" height="50" relative="1" as="geometry">
            <mxPoint x="400" y="430" as="sourcePoint" />
            <mxPoint x="450" y="380" as="targetPoint" />
          </mxGeometry>
        </mxCell>
        <mxCell id="S4ALjUtNJ2dEBJcH048C-419" style="edgeStyle=orthogonalEdgeStyle;rounded=0;orthogonalLoop=1;jettySize=auto;html=1;exitX=0.5;exitY=1;exitDx=0;exitDy=0;entryX=0.454;entryY=0.167;entryDx=0;entryDy=0;entryPerimeter=0;" edge="1" parent="WIyWlLk6GJQsqaUBKTNV-1" source="S4ALjUtNJ2dEBJcH048C-261" target="S4ALjUtNJ2dEBJcH048C-331">
          <mxGeometry relative="1" as="geometry" />
        </mxCell>
        <mxCell id="S4ALjUtNJ2dEBJcH048C-424" style="edgeStyle=orthogonalEdgeStyle;rounded=0;orthogonalLoop=1;jettySize=auto;html=1;exitX=0.5;exitY=1;exitDx=0;exitDy=0;entryX=0.435;entryY=0.1;entryDx=0;entryDy=0;entryPerimeter=0;" edge="1" parent="WIyWlLk6GJQsqaUBKTNV-1" source="S4ALjUtNJ2dEBJcH048C-209" target="S4ALjUtNJ2dEBJcH048C-259">
          <mxGeometry relative="1" as="geometry" />
        </mxCell>
        <mxCell id="S4ALjUtNJ2dEBJcH048C-425" style="edgeStyle=orthogonalEdgeStyle;rounded=0;orthogonalLoop=1;jettySize=auto;html=1;exitX=0.5;exitY=1;exitDx=0;exitDy=0;entryX=0.454;entryY=0.023;entryDx=0;entryDy=0;entryPerimeter=0;" edge="1" parent="WIyWlLk6GJQsqaUBKTNV-1" source="S4ALjUtNJ2dEBJcH048C-259" target="S4ALjUtNJ2dEBJcH048C-227">
          <mxGeometry relative="1" as="geometry" />
        </mxCell>
        <mxCell id="S4ALjUtNJ2dEBJcH048C-426" style="edgeStyle=orthogonalEdgeStyle;rounded=0;orthogonalLoop=1;jettySize=auto;html=1;exitX=0.5;exitY=1;exitDx=0;exitDy=0;entryX=0.538;entryY=0.026;entryDx=0;entryDy=0;entryPerimeter=0;" edge="1" parent="WIyWlLk6GJQsqaUBKTNV-1" source="S4ALjUtNJ2dEBJcH048C-259" target="S4ALjUtNJ2dEBJcH048C-242">
          <mxGeometry relative="1" as="geometry" />
        </mxCell>
        <mxCell id="S4ALjUtNJ2dEBJcH048C-427" style="edgeStyle=orthogonalEdgeStyle;rounded=0;orthogonalLoop=1;jettySize=auto;html=1;exitX=0.5;exitY=1;exitDx=0;exitDy=0;entryX=0.5;entryY=0;entryDx=0;entryDy=0;" edge="1" parent="WIyWlLk6GJQsqaUBKTNV-1" source="S4ALjUtNJ2dEBJcH048C-428" target="S4ALjUtNJ2dEBJcH048C-432">
          <mxGeometry relative="1" as="geometry" />
        </mxCell>
        <mxCell id="S4ALjUtNJ2dEBJcH048C-428" value="&lt;font style=&quot;font-size: 15px;&quot;&gt;étape 3 modification globale du schema 1223&lt;/font&gt;" style="rounded=1;whiteSpace=wrap;html=1;fillColor=#dae8fc;strokeColor=#6c8ebf;" vertex="1" parent="WIyWlLk6GJQsqaUBKTNV-1">
          <mxGeometry x="130" y="1048" width="190" height="40" as="geometry" />
        </mxCell>
        <mxCell id="S4ALjUtNJ2dEBJcH048C-429" value="&lt;span style=&quot;background-color: rgb(255, 255, 255);&quot;&gt;les modifications se répercutent sur les schemas des centrales concernés &lt;font style=&quot;color: rgb(255, 0, 0);&quot;&gt;donc les modifications faites sur la scapalsace en étape 2 sont écrasées&lt;/font&gt;&lt;/span&gt;" style="rounded=0;whiteSpace=wrap;html=1;" vertex="1" parent="WIyWlLk6GJQsqaUBKTNV-1">
          <mxGeometry x="450" y="1178" width="413.5" height="40" as="geometry" />
        </mxCell>
        <mxCell id="S4ALjUtNJ2dEBJcH048C-430" value="" style="sketch=0;outlineConnect=0;fontColor=#232F3E;gradientColor=none;fillColor=#232F3D;strokeColor=none;dashed=0;verticalLabelPosition=bottom;verticalAlign=top;align=center;html=1;fontSize=12;fontStyle=0;aspect=fixed;pointerEvents=1;shape=mxgraph.aws4.user;" vertex="1" parent="WIyWlLk6GJQsqaUBKTNV-1">
          <mxGeometry x="210" y="988" width="30" height="30" as="geometry" />
        </mxCell>
        <mxCell id="S4ALjUtNJ2dEBJcH048C-431" style="edgeStyle=orthogonalEdgeStyle;rounded=0;orthogonalLoop=1;jettySize=auto;html=1;exitX=1;exitY=0.5;exitDx=0;exitDy=0;entryX=0;entryY=0.75;entryDx=0;entryDy=0;" edge="1" parent="WIyWlLk6GJQsqaUBKTNV-1" source="S4ALjUtNJ2dEBJcH048C-432" target="S4ALjUtNJ2dEBJcH048C-468">
          <mxGeometry relative="1" as="geometry" />
        </mxCell>
        <mxCell id="S4ALjUtNJ2dEBJcH048C-432" value="décalage de la livraison du jeudi au mercredi" style="rounded=0;whiteSpace=wrap;html=1;" vertex="1" parent="WIyWlLk6GJQsqaUBKTNV-1">
          <mxGeometry x="135" y="1118" width="185" height="30" as="geometry" />
        </mxCell>
        <mxCell id="S4ALjUtNJ2dEBJcH048C-433" value="" style="endArrow=classic;html=1;rounded=0;" edge="1" parent="WIyWlLk6GJQsqaUBKTNV-1" source="S4ALjUtNJ2dEBJcH048C-430" target="S4ALjUtNJ2dEBJcH048C-428">
          <mxGeometry width="50" height="50" relative="1" as="geometry">
            <mxPoint x="410" y="1388" as="sourcePoint" />
            <mxPoint x="460" y="1338" as="targetPoint" />
          </mxGeometry>
        </mxCell>
        <mxCell id="S4ALjUtNJ2dEBJcH048C-435" value="" style="group" vertex="1" connectable="0" parent="WIyWlLk6GJQsqaUBKTNV-1">
          <mxGeometry x="695" y="1354" width="260" height="115" as="geometry" />
        </mxCell>
        <mxCell id="S4ALjUtNJ2dEBJcH048C-436" value="" style="rounded=1;whiteSpace=wrap;html=1;fillColor=#fff2cc;strokeColor=#d6b656;" vertex="1" parent="S4ALjUtNJ2dEBJcH048C-435">
          <mxGeometry width="260" height="115" as="geometry" />
        </mxCell>
        <mxCell id="S4ALjUtNJ2dEBJcH048C-437" value="schema 1223&amp;nbsp;&lt;span style=&quot;background-color: transparent; color: light-dark(rgb(0, 0, 0), rgb(255, 255, 255));&quot;&gt;scapest&lt;/span&gt;" style="rounded=1;whiteSpace=wrap;html=1;fontSize=12;glass=0;strokeWidth=1;shadow=0;" vertex="1" parent="S4ALjUtNJ2dEBJcH048C-435">
          <mxGeometry x="17" y="10" width="230" height="15" as="geometry" />
        </mxCell>
        <mxCell id="S4ALjUtNJ2dEBJcH048C-438" value="" style="shape=table;startSize=0;container=1;collapsible=0;childLayout=tableLayout;fontSize=11;" vertex="1" parent="S4ALjUtNJ2dEBJcH048C-435">
          <mxGeometry x="20" y="35" width="230" height="60" as="geometry" />
        </mxCell>
        <mxCell id="S4ALjUtNJ2dEBJcH048C-439" value="" style="shape=tableRow;horizontal=0;startSize=0;swimlaneHead=0;swimlaneBody=0;strokeColor=inherit;top=0;left=0;bottom=0;right=0;collapsible=0;dropTarget=0;fillColor=none;points=[[0,0.5],[1,0.5]];portConstraint=eastwest;fontSize=11;" vertex="1" parent="S4ALjUtNJ2dEBJcH048C-438">
          <mxGeometry width="230" height="30" as="geometry" />
        </mxCell>
        <mxCell id="S4ALjUtNJ2dEBJcH048C-440" value="lun&lt;div&gt;14/04&lt;/div&gt;" style="shape=partialRectangle;html=1;whiteSpace=wrap;connectable=0;strokeColor=inherit;overflow=hidden;fillColor=none;top=0;left=0;bottom=0;right=0;pointerEvents=1;fontSize=11;" vertex="1" parent="S4ALjUtNJ2dEBJcH048C-439">
          <mxGeometry width="46" height="30" as="geometry">
            <mxRectangle width="46" height="30" as="alternateBounds" />
          </mxGeometry>
        </mxCell>
        <mxCell id="S4ALjUtNJ2dEBJcH048C-441" value="mar&lt;div&gt;15/04&lt;/div&gt;" style="shape=partialRectangle;html=1;whiteSpace=wrap;connectable=0;strokeColor=inherit;overflow=hidden;fillColor=none;top=0;left=0;bottom=0;right=0;pointerEvents=1;fontSize=11;" vertex="1" parent="S4ALjUtNJ2dEBJcH048C-439">
          <mxGeometry x="46" width="46" height="30" as="geometry">
            <mxRectangle width="46" height="30" as="alternateBounds" />
          </mxGeometry>
        </mxCell>
        <mxCell id="S4ALjUtNJ2dEBJcH048C-442" value="mer&lt;div&gt;16/04&lt;/div&gt;" style="shape=partialRectangle;html=1;whiteSpace=wrap;connectable=0;strokeColor=inherit;overflow=hidden;fillColor=none;top=0;left=0;bottom=0;right=0;pointerEvents=1;fontSize=11;" vertex="1" parent="S4ALjUtNJ2dEBJcH048C-439">
          <mxGeometry x="92" width="46" height="30" as="geometry">
            <mxRectangle width="46" height="30" as="alternateBounds" />
          </mxGeometry>
        </mxCell>
        <mxCell id="S4ALjUtNJ2dEBJcH048C-443" value="jeu&lt;div&gt;17/04&lt;/div&gt;" style="shape=partialRectangle;html=1;whiteSpace=wrap;connectable=0;strokeColor=inherit;overflow=hidden;fillColor=none;top=0;left=0;bottom=0;right=0;pointerEvents=1;fontSize=11;" vertex="1" parent="S4ALjUtNJ2dEBJcH048C-439">
          <mxGeometry x="138" width="46" height="30" as="geometry">
            <mxRectangle width="46" height="30" as="alternateBounds" />
          </mxGeometry>
        </mxCell>
        <mxCell id="S4ALjUtNJ2dEBJcH048C-444" value="ven&lt;div&gt;18/04&lt;/div&gt;" style="shape=partialRectangle;html=1;whiteSpace=wrap;connectable=0;strokeColor=inherit;overflow=hidden;fillColor=none;top=0;left=0;bottom=0;right=0;pointerEvents=1;fontSize=11;" vertex="1" parent="S4ALjUtNJ2dEBJcH048C-439">
          <mxGeometry x="184" width="46" height="30" as="geometry">
            <mxRectangle width="46" height="30" as="alternateBounds" />
          </mxGeometry>
        </mxCell>
        <mxCell id="S4ALjUtNJ2dEBJcH048C-445" value="" style="shape=tableRow;horizontal=0;startSize=0;swimlaneHead=0;swimlaneBody=0;strokeColor=inherit;top=0;left=0;bottom=0;right=0;collapsible=0;dropTarget=0;fillColor=none;points=[[0,0.5],[1,0.5]];portConstraint=eastwest;fontSize=11;" vertex="1" parent="S4ALjUtNJ2dEBJcH048C-438">
          <mxGeometry y="30" width="230" height="30" as="geometry" />
        </mxCell>
        <mxCell id="S4ALjUtNJ2dEBJcH048C-446" value="cde" style="shape=partialRectangle;html=1;whiteSpace=wrap;connectable=0;strokeColor=inherit;overflow=hidden;fillColor=none;top=0;left=0;bottom=0;right=0;pointerEvents=1;fontSize=11;" vertex="1" parent="S4ALjUtNJ2dEBJcH048C-445">
          <mxGeometry width="46" height="30" as="geometry">
            <mxRectangle width="46" height="30" as="alternateBounds" />
          </mxGeometry>
        </mxCell>
        <mxCell id="S4ALjUtNJ2dEBJcH048C-447" value="prepa&lt;div&gt;chg&lt;/div&gt;" style="shape=partialRectangle;html=1;whiteSpace=wrap;connectable=0;strokeColor=inherit;overflow=hidden;fillColor=none;top=0;left=0;bottom=0;right=0;pointerEvents=1;fontSize=11;" vertex="1" parent="S4ALjUtNJ2dEBJcH048C-445">
          <mxGeometry x="46" width="46" height="30" as="geometry">
            <mxRectangle width="46" height="30" as="alternateBounds" />
          </mxGeometry>
        </mxCell>
        <mxCell id="S4ALjUtNJ2dEBJcH048C-448" value="&lt;b&gt;&lt;font style=&quot;color: rgb(103, 171, 159);&quot;&gt;liv&lt;/font&gt;&lt;/b&gt;" style="shape=partialRectangle;html=1;whiteSpace=wrap;connectable=0;strokeColor=inherit;overflow=hidden;fillColor=none;top=0;left=0;bottom=0;right=0;pointerEvents=1;fontSize=11;" vertex="1" parent="S4ALjUtNJ2dEBJcH048C-445">
          <mxGeometry x="92" width="46" height="30" as="geometry">
            <mxRectangle width="46" height="30" as="alternateBounds" />
          </mxGeometry>
        </mxCell>
        <mxCell id="S4ALjUtNJ2dEBJcH048C-449" value="&lt;strike&gt;&lt;font style=&quot;color: rgb(255, 0, 0);&quot;&gt;liv&lt;/font&gt;&lt;/strike&gt;" style="shape=partialRectangle;html=1;whiteSpace=wrap;connectable=0;strokeColor=inherit;overflow=hidden;fillColor=none;top=0;left=0;bottom=0;right=0;pointerEvents=1;fontSize=11;" vertex="1" parent="S4ALjUtNJ2dEBJcH048C-445">
          <mxGeometry x="138" width="46" height="30" as="geometry">
            <mxRectangle width="46" height="30" as="alternateBounds" />
          </mxGeometry>
        </mxCell>
        <mxCell id="S4ALjUtNJ2dEBJcH048C-450" style="shape=partialRectangle;html=1;whiteSpace=wrap;connectable=0;strokeColor=inherit;overflow=hidden;fillColor=none;top=0;left=0;bottom=0;right=0;pointerEvents=1;fontSize=11;" vertex="1" parent="S4ALjUtNJ2dEBJcH048C-445">
          <mxGeometry x="184" width="46" height="30" as="geometry">
            <mxRectangle width="46" height="30" as="alternateBounds" />
          </mxGeometry>
        </mxCell>
        <mxCell id="S4ALjUtNJ2dEBJcH048C-451" value="" style="group" vertex="1" connectable="0" parent="WIyWlLk6GJQsqaUBKTNV-1">
          <mxGeometry x="340" y="1356.5" width="260" height="110" as="geometry" />
        </mxCell>
        <mxCell id="S4ALjUtNJ2dEBJcH048C-452" value="" style="rounded=1;whiteSpace=wrap;html=1;fillColor=#fff2cc;strokeColor=#d6b656;" vertex="1" parent="S4ALjUtNJ2dEBJcH048C-451">
          <mxGeometry width="260" height="110" as="geometry" />
        </mxCell>
        <mxCell id="S4ALjUtNJ2dEBJcH048C-453" value="schema 1223&amp;nbsp;&lt;span style=&quot;background-color: transparent; color: light-dark(rgb(0, 0, 0), rgb(255, 255, 255));&quot;&gt;scapalsace&lt;/span&gt;" style="rounded=1;whiteSpace=wrap;html=1;fontSize=12;glass=0;strokeWidth=1;shadow=0;" vertex="1" parent="S4ALjUtNJ2dEBJcH048C-451">
          <mxGeometry x="28" y="10" width="210" height="16" as="geometry" />
        </mxCell>
        <mxCell id="S4ALjUtNJ2dEBJcH048C-454" value="" style="shape=table;startSize=0;container=1;collapsible=0;childLayout=tableLayout;fontSize=11;" vertex="1" parent="S4ALjUtNJ2dEBJcH048C-451">
          <mxGeometry x="20" y="36" width="230" height="60" as="geometry" />
        </mxCell>
        <mxCell id="S4ALjUtNJ2dEBJcH048C-455" value="" style="shape=tableRow;horizontal=0;startSize=0;swimlaneHead=0;swimlaneBody=0;strokeColor=inherit;top=0;left=0;bottom=0;right=0;collapsible=0;dropTarget=0;fillColor=none;points=[[0,0.5],[1,0.5]];portConstraint=eastwest;fontSize=11;" vertex="1" parent="S4ALjUtNJ2dEBJcH048C-454">
          <mxGeometry width="230" height="30" as="geometry" />
        </mxCell>
        <mxCell id="S4ALjUtNJ2dEBJcH048C-456" value="lun&lt;div&gt;14/04&lt;/div&gt;" style="shape=partialRectangle;html=1;whiteSpace=wrap;connectable=0;strokeColor=inherit;overflow=hidden;fillColor=none;top=0;left=0;bottom=0;right=0;pointerEvents=1;fontSize=11;" vertex="1" parent="S4ALjUtNJ2dEBJcH048C-455">
          <mxGeometry width="46" height="30" as="geometry">
            <mxRectangle width="46" height="30" as="alternateBounds" />
          </mxGeometry>
        </mxCell>
        <mxCell id="S4ALjUtNJ2dEBJcH048C-457" value="mar&lt;div&gt;15/04&lt;/div&gt;" style="shape=partialRectangle;html=1;whiteSpace=wrap;connectable=0;strokeColor=inherit;overflow=hidden;fillColor=none;top=0;left=0;bottom=0;right=0;pointerEvents=1;fontSize=11;" vertex="1" parent="S4ALjUtNJ2dEBJcH048C-455">
          <mxGeometry x="46" width="46" height="30" as="geometry">
            <mxRectangle width="46" height="30" as="alternateBounds" />
          </mxGeometry>
        </mxCell>
        <mxCell id="S4ALjUtNJ2dEBJcH048C-458" value="mer&lt;div&gt;16/04&lt;/div&gt;" style="shape=partialRectangle;html=1;whiteSpace=wrap;connectable=0;strokeColor=inherit;overflow=hidden;fillColor=none;top=0;left=0;bottom=0;right=0;pointerEvents=1;fontSize=11;" vertex="1" parent="S4ALjUtNJ2dEBJcH048C-455">
          <mxGeometry x="92" width="46" height="30" as="geometry">
            <mxRectangle width="46" height="30" as="alternateBounds" />
          </mxGeometry>
        </mxCell>
        <mxCell id="S4ALjUtNJ2dEBJcH048C-459" value="jeu&lt;div&gt;17/04&lt;/div&gt;" style="shape=partialRectangle;html=1;whiteSpace=wrap;connectable=0;strokeColor=inherit;overflow=hidden;fillColor=none;top=0;left=0;bottom=0;right=0;pointerEvents=1;fontSize=11;" vertex="1" parent="S4ALjUtNJ2dEBJcH048C-455">
          <mxGeometry x="138" width="46" height="30" as="geometry">
            <mxRectangle width="46" height="30" as="alternateBounds" />
          </mxGeometry>
        </mxCell>
        <mxCell id="S4ALjUtNJ2dEBJcH048C-460" value="ven&lt;div&gt;18/04&lt;/div&gt;" style="shape=partialRectangle;html=1;whiteSpace=wrap;connectable=0;strokeColor=inherit;overflow=hidden;fillColor=none;top=0;left=0;bottom=0;right=0;pointerEvents=1;fontSize=11;" vertex="1" parent="S4ALjUtNJ2dEBJcH048C-455">
          <mxGeometry x="184" width="46" height="30" as="geometry">
            <mxRectangle width="46" height="30" as="alternateBounds" />
          </mxGeometry>
        </mxCell>
        <mxCell id="S4ALjUtNJ2dEBJcH048C-461" value="" style="shape=tableRow;horizontal=0;startSize=0;swimlaneHead=0;swimlaneBody=0;strokeColor=inherit;top=0;left=0;bottom=0;right=0;collapsible=0;dropTarget=0;fillColor=none;points=[[0,0.5],[1,0.5]];portConstraint=eastwest;fontSize=11;" vertex="1" parent="S4ALjUtNJ2dEBJcH048C-454">
          <mxGeometry y="30" width="230" height="30" as="geometry" />
        </mxCell>
        <mxCell id="S4ALjUtNJ2dEBJcH048C-462" value="cde" style="shape=partialRectangle;html=1;whiteSpace=wrap;connectable=0;strokeColor=inherit;overflow=hidden;fillColor=none;top=0;left=0;bottom=0;right=0;pointerEvents=1;fontSize=11;" vertex="1" parent="S4ALjUtNJ2dEBJcH048C-461">
          <mxGeometry width="46" height="30" as="geometry">
            <mxRectangle width="46" height="30" as="alternateBounds" />
          </mxGeometry>
        </mxCell>
        <mxCell id="S4ALjUtNJ2dEBJcH048C-463" value="prepa&lt;div&gt;chg&lt;/div&gt;" style="shape=partialRectangle;html=1;whiteSpace=wrap;connectable=0;strokeColor=inherit;overflow=hidden;fillColor=none;top=0;left=0;bottom=0;right=0;pointerEvents=1;fontSize=11;" vertex="1" parent="S4ALjUtNJ2dEBJcH048C-461">
          <mxGeometry x="46" width="46" height="30" as="geometry">
            <mxRectangle width="46" height="30" as="alternateBounds" />
          </mxGeometry>
        </mxCell>
        <mxCell id="S4ALjUtNJ2dEBJcH048C-464" value="&lt;b&gt;&lt;font style=&quot;color: rgb(103, 171, 159);&quot;&gt;liv&lt;/font&gt;&lt;/b&gt;" style="shape=partialRectangle;html=1;whiteSpace=wrap;connectable=0;strokeColor=inherit;overflow=hidden;fillColor=none;top=0;left=0;bottom=0;right=0;pointerEvents=1;fontSize=11;" vertex="1" parent="S4ALjUtNJ2dEBJcH048C-461">
          <mxGeometry x="92" width="46" height="30" as="geometry">
            <mxRectangle width="46" height="30" as="alternateBounds" />
          </mxGeometry>
        </mxCell>
        <mxCell id="S4ALjUtNJ2dEBJcH048C-465" value="&lt;strike&gt;&lt;font style=&quot;color: rgb(255, 0, 0);&quot;&gt;liv&lt;/font&gt;&lt;/strike&gt;" style="shape=partialRectangle;html=1;whiteSpace=wrap;connectable=0;strokeColor=inherit;overflow=hidden;fillColor=none;top=0;left=0;bottom=0;right=0;pointerEvents=1;fontSize=11;" vertex="1" parent="S4ALjUtNJ2dEBJcH048C-461">
          <mxGeometry x="138" width="46" height="30" as="geometry">
            <mxRectangle width="46" height="30" as="alternateBounds" />
          </mxGeometry>
        </mxCell>
        <mxCell id="S4ALjUtNJ2dEBJcH048C-466" style="shape=partialRectangle;html=1;whiteSpace=wrap;connectable=0;strokeColor=inherit;overflow=hidden;fillColor=none;top=0;left=0;bottom=0;right=0;pointerEvents=1;fontSize=11;" vertex="1" parent="S4ALjUtNJ2dEBJcH048C-461">
          <mxGeometry x="184" width="46" height="30" as="geometry">
            <mxRectangle width="46" height="30" as="alternateBounds" />
          </mxGeometry>
        </mxCell>
        <mxCell id="S4ALjUtNJ2dEBJcH048C-467" value="" style="group" vertex="1" connectable="0" parent="WIyWlLk6GJQsqaUBKTNV-1">
          <mxGeometry x="500" y="1038" width="260" height="120" as="geometry" />
        </mxCell>
        <mxCell id="S4ALjUtNJ2dEBJcH048C-468" value="" style="rounded=1;whiteSpace=wrap;html=1;fillColor=#dae8fc;strokeColor=#6c8ebf;" vertex="1" parent="S4ALjUtNJ2dEBJcH048C-467">
          <mxGeometry width="260" height="120" as="geometry" />
        </mxCell>
        <mxCell id="S4ALjUtNJ2dEBJcH048C-469" value="schema 1&lt;span style=&quot;background-color: transparent; color: light-dark(rgb(0, 0, 0), rgb(255, 255, 255));&quot;&gt;223&amp;nbsp;&lt;/span&gt;&lt;span style=&quot;background-color: transparent; color: light-dark(rgb(0, 0, 0), rgb(255, 255, 255));&quot;&gt;toutes centrales&lt;/span&gt;" style="rounded=1;whiteSpace=wrap;html=1;fontSize=12;glass=0;strokeWidth=1;shadow=0;" vertex="1" parent="S4ALjUtNJ2dEBJcH048C-467">
          <mxGeometry x="20" y="10" width="230" height="20" as="geometry" />
        </mxCell>
        <mxCell id="S4ALjUtNJ2dEBJcH048C-470" value="" style="shape=table;startSize=0;container=1;collapsible=0;childLayout=tableLayout;fontSize=11;" vertex="1" parent="S4ALjUtNJ2dEBJcH048C-467">
          <mxGeometry x="20" y="40" width="230" height="60" as="geometry" />
        </mxCell>
        <mxCell id="S4ALjUtNJ2dEBJcH048C-471" value="" style="shape=tableRow;horizontal=0;startSize=0;swimlaneHead=0;swimlaneBody=0;strokeColor=inherit;top=0;left=0;bottom=0;right=0;collapsible=0;dropTarget=0;fillColor=none;points=[[0,0.5],[1,0.5]];portConstraint=eastwest;fontSize=11;" vertex="1" parent="S4ALjUtNJ2dEBJcH048C-470">
          <mxGeometry width="230" height="30" as="geometry" />
        </mxCell>
        <mxCell id="S4ALjUtNJ2dEBJcH048C-472" value="lun&lt;div&gt;14/04&lt;/div&gt;" style="shape=partialRectangle;html=1;whiteSpace=wrap;connectable=0;strokeColor=inherit;overflow=hidden;fillColor=none;top=0;left=0;bottom=0;right=0;pointerEvents=1;fontSize=11;" vertex="1" parent="S4ALjUtNJ2dEBJcH048C-471">
          <mxGeometry width="46" height="30" as="geometry">
            <mxRectangle width="46" height="30" as="alternateBounds" />
          </mxGeometry>
        </mxCell>
        <mxCell id="S4ALjUtNJ2dEBJcH048C-473" value="mar&lt;div&gt;15/04&lt;/div&gt;" style="shape=partialRectangle;html=1;whiteSpace=wrap;connectable=0;strokeColor=inherit;overflow=hidden;fillColor=none;top=0;left=0;bottom=0;right=0;pointerEvents=1;fontSize=11;" vertex="1" parent="S4ALjUtNJ2dEBJcH048C-471">
          <mxGeometry x="46" width="46" height="30" as="geometry">
            <mxRectangle width="46" height="30" as="alternateBounds" />
          </mxGeometry>
        </mxCell>
        <mxCell id="S4ALjUtNJ2dEBJcH048C-474" value="mer&lt;div&gt;16/04&lt;/div&gt;" style="shape=partialRectangle;html=1;whiteSpace=wrap;connectable=0;strokeColor=inherit;overflow=hidden;fillColor=none;top=0;left=0;bottom=0;right=0;pointerEvents=1;fontSize=11;" vertex="1" parent="S4ALjUtNJ2dEBJcH048C-471">
          <mxGeometry x="92" width="46" height="30" as="geometry">
            <mxRectangle width="46" height="30" as="alternateBounds" />
          </mxGeometry>
        </mxCell>
        <mxCell id="S4ALjUtNJ2dEBJcH048C-475" value="jeu&lt;div&gt;17/04&lt;/div&gt;" style="shape=partialRectangle;html=1;whiteSpace=wrap;connectable=0;strokeColor=inherit;overflow=hidden;fillColor=none;top=0;left=0;bottom=0;right=0;pointerEvents=1;fontSize=11;" vertex="1" parent="S4ALjUtNJ2dEBJcH048C-471">
          <mxGeometry x="138" width="46" height="30" as="geometry">
            <mxRectangle width="46" height="30" as="alternateBounds" />
          </mxGeometry>
        </mxCell>
        <mxCell id="S4ALjUtNJ2dEBJcH048C-476" value="ven&lt;div&gt;18/04&lt;/div&gt;" style="shape=partialRectangle;html=1;whiteSpace=wrap;connectable=0;strokeColor=inherit;overflow=hidden;fillColor=none;top=0;left=0;bottom=0;right=0;pointerEvents=1;fontSize=11;" vertex="1" parent="S4ALjUtNJ2dEBJcH048C-471">
          <mxGeometry x="184" width="46" height="30" as="geometry">
            <mxRectangle width="46" height="30" as="alternateBounds" />
          </mxGeometry>
        </mxCell>
        <mxCell id="S4ALjUtNJ2dEBJcH048C-477" value="" style="shape=tableRow;horizontal=0;startSize=0;swimlaneHead=0;swimlaneBody=0;strokeColor=inherit;top=0;left=0;bottom=0;right=0;collapsible=0;dropTarget=0;fillColor=none;points=[[0,0.5],[1,0.5]];portConstraint=eastwest;fontSize=11;" vertex="1" parent="S4ALjUtNJ2dEBJcH048C-470">
          <mxGeometry y="30" width="230" height="30" as="geometry" />
        </mxCell>
        <mxCell id="S4ALjUtNJ2dEBJcH048C-478" value="cde" style="shape=partialRectangle;html=1;whiteSpace=wrap;connectable=0;strokeColor=inherit;overflow=hidden;fillColor=none;top=0;left=0;bottom=0;right=0;pointerEvents=1;fontSize=11;" vertex="1" parent="S4ALjUtNJ2dEBJcH048C-477">
          <mxGeometry width="46" height="30" as="geometry">
            <mxRectangle width="46" height="30" as="alternateBounds" />
          </mxGeometry>
        </mxCell>
        <mxCell id="S4ALjUtNJ2dEBJcH048C-479" value="prepa&lt;div&gt;chg&lt;/div&gt;" style="shape=partialRectangle;html=1;whiteSpace=wrap;connectable=0;strokeColor=inherit;overflow=hidden;fillColor=none;top=0;left=0;bottom=0;right=0;pointerEvents=1;fontSize=11;" vertex="1" parent="S4ALjUtNJ2dEBJcH048C-477">
          <mxGeometry x="46" width="46" height="30" as="geometry">
            <mxRectangle width="46" height="30" as="alternateBounds" />
          </mxGeometry>
        </mxCell>
        <mxCell id="S4ALjUtNJ2dEBJcH048C-480" value="&lt;b&gt;&lt;font style=&quot;color: rgb(103, 171, 159);&quot;&gt;liv&lt;/font&gt;&lt;/b&gt;" style="shape=partialRectangle;html=1;whiteSpace=wrap;connectable=0;strokeColor=inherit;overflow=hidden;fillColor=none;top=0;left=0;bottom=0;right=0;pointerEvents=1;fontSize=11;" vertex="1" parent="S4ALjUtNJ2dEBJcH048C-477">
          <mxGeometry x="92" width="46" height="30" as="geometry">
            <mxRectangle width="46" height="30" as="alternateBounds" />
          </mxGeometry>
        </mxCell>
        <mxCell id="S4ALjUtNJ2dEBJcH048C-481" value="&lt;strike&gt;&lt;font style=&quot;color: rgb(255, 0, 0);&quot;&gt;liv&lt;/font&gt;&lt;/strike&gt;" style="shape=partialRectangle;html=1;whiteSpace=wrap;connectable=0;strokeColor=inherit;overflow=hidden;fillColor=none;top=0;left=0;bottom=0;right=0;pointerEvents=1;fontSize=11;" vertex="1" parent="S4ALjUtNJ2dEBJcH048C-477">
          <mxGeometry x="138" width="46" height="30" as="geometry">
            <mxRectangle width="46" height="30" as="alternateBounds" />
          </mxGeometry>
        </mxCell>
        <mxCell id="S4ALjUtNJ2dEBJcH048C-482" style="shape=partialRectangle;html=1;whiteSpace=wrap;connectable=0;strokeColor=inherit;overflow=hidden;fillColor=none;top=0;left=0;bottom=0;right=0;pointerEvents=1;fontSize=11;" vertex="1" parent="S4ALjUtNJ2dEBJcH048C-477">
          <mxGeometry x="184" width="46" height="30" as="geometry">
            <mxRectangle width="46" height="30" as="alternateBounds" />
          </mxGeometry>
        </mxCell>
        <mxCell id="S4ALjUtNJ2dEBJcH048C-483" style="edgeStyle=orthogonalEdgeStyle;rounded=0;orthogonalLoop=1;jettySize=auto;html=1;exitX=0.5;exitY=1;exitDx=0;exitDy=0;entryX=0.435;entryY=0.1;entryDx=0;entryDy=0;entryPerimeter=0;" edge="1" parent="WIyWlLk6GJQsqaUBKTNV-1" source="S4ALjUtNJ2dEBJcH048C-468" target="S4ALjUtNJ2dEBJcH048C-429">
          <mxGeometry relative="1" as="geometry" />
        </mxCell>
        <mxCell id="S4ALjUtNJ2dEBJcH048C-484" style="edgeStyle=orthogonalEdgeStyle;rounded=0;orthogonalLoop=1;jettySize=auto;html=1;exitX=0.5;exitY=1;exitDx=0;exitDy=0;entryX=0.454;entryY=0.023;entryDx=0;entryDy=0;entryPerimeter=0;" edge="1" parent="WIyWlLk6GJQsqaUBKTNV-1" source="S4ALjUtNJ2dEBJcH048C-429" target="S4ALjUtNJ2dEBJcH048C-452">
          <mxGeometry relative="1" as="geometry" />
        </mxCell>
        <mxCell id="S4ALjUtNJ2dEBJcH048C-485" style="edgeStyle=orthogonalEdgeStyle;rounded=0;orthogonalLoop=1;jettySize=auto;html=1;exitX=0.5;exitY=1;exitDx=0;exitDy=0;entryX=0.538;entryY=0.026;entryDx=0;entryDy=0;entryPerimeter=0;" edge="1" parent="WIyWlLk6GJQsqaUBKTNV-1" source="S4ALjUtNJ2dEBJcH048C-429" target="S4ALjUtNJ2dEBJcH048C-436">
          <mxGeometry relative="1" as="geometry" />
        </mxCell>
      </root>
    </mxGraphModel>
  </diagram>
</mxfile>
